<svg id="svg" class="path" title="background" version="1.1" xmlns="http://www.w3.org/2000/svg" style="background-color: rgb(252, 253, 247);"><path fill="#f7f1da" stroke="#f7f1da" d="M -140 1036 L -140 0 C -9.545454545454561 0, 16.54545454545456 -56, 147 -56 C 277.45454545454544 -56, 303.54545454545456 56, 434 56 C 564.4545454545455 56, 590.5454545454545 -56, 721 -56 C 851.4545454545455 -56, 877.5454545454545 56, 1008 56 C 1138.4545454545455 56, 1164.5454545454545 -56, 1295 -56 C 1425.4545454545455 -56, 1451.5454545454545 56, 1582 56 C 1712.4545454545455 56, 1738.5454545454545 -56, 1869 -56 C 1999.4545454545455 -56, 2025.5454545454545 56, 2156 56 L 2060 0 L 2060 1036 Z"></path><path fill="#fce1be" stroke="#fce1be" d="M -140 1036 L -160 128 C -29.54545454545456 128, -3.454545454545439 72, 127 72 C 257.45454545454544 72, 283.54545454545456 184, 414 184 C 544.4545454545455 184, 570.5454545454545 72, 701 72 C 831.4545454545455 72, 857.5454545454545 184, 988 184 C 1118.4545454545455 184, 1144.5454545454545 72, 1275 72 C 1405.4545454545455 72, 1431.5454545454545 184, 1562 184 C 1692.4545454545455 184, 1718.5454545454545 72, 1849 72 C 1979.4545454545455 72, 2005.5454545454545 184, 2136 184 L 2060 128 L 2060 1036 Z"></path><path fill="#ffcea9" stroke="#ffcea9" d="M -140 1036 L -180 256 C -49.54545454545456 256, -23.45454545454544 200, 107 200 C 237.45454545454544 200, 263.54545454545456 312, 394 312 C 524.4545454545455 312, 550.5454545454545 200, 681 200 C 811.4545454545455 200, 837.5454545454545 312, 968 312 C 1098.4545454545455 312, 1124.5454545454545 200, 1255 200 C 1385.4545454545455 200, 1411.5454545454545 312, 1542 312 C 1672.4545454545455 312, 1698.5454545454545 200, 1829 200 C 1959.4545454545455 200, 1985.5454545454545 312, 2116 312 L 2060 256 L 2060 1036 Z"></path><path fill="#ffb8a0" stroke="#ffb8a0" d="M -140 1036 L -200 384 C -69.54545454545456 384, -43.45454545454544 328, 87 328 C 217.45454545454544 328, 243.54545454545456 440, 374 440 C 504.45454545454544 440, 530.5454545454545 328, 661 328 C 791.4545454545455 328, 817.5454545454545 440, 948 440 C 1078.4545454545455 440, 1104.5454545454545 328, 1235 328 C 1365.4545454545455 328, 1391.5454545454545 440, 1522 440 C 1652.4545454545455 440, 1678.5454545454545 328, 1809 328 C 1939.4545454545455 328, 1965.5454545454545 440, 2096 440 L 2060 384 L 2060 1036 Z"></path><path fill="#ffa1a4" stroke="#ffa1a4" d="M -140 1036 L -220 512 C -89.54545454545456 512, -63.45454545454544 456, 67 456 C 197.45454545454544 456, 223.54545454545456 568, 354 568 C 484.45454545454544 568, 510.54545454545456 456, 641 456 C 771.4545454545455 456, 797.5454545454545 568, 928 568 C 1058.4545454545455 568, 1084.5454545454545 456, 1215 456 C 1345.4545454545455 456, 1371.5454545454545 568, 1502 568 C 1632.4545454545455 568, 1658.5454545454545 456, 1789 456 C 1919.4545454545455 456, 1945.5454545454545 568, 2076 568 L 2060 512 L 2060 1036 Z"></path><path fill="#ff8ab5" stroke="#ff8ab5" d="M -140 1036 L -240 640 C -109.54545454545456 640, -83.45454545454544 584, 47 584 C 177.45454545454544 584, 203.54545454545456 696, 334 696 C 464.45454545454544 696, 490.54545454545456 584, 621 584 C 751.4545454545455 584, 777.5454545454545 696, 908 696 C 1038.4545454545455 696, 1064.5454545454545 584, 1195 584 C 1325.4545454545455 584, 1351.5454545454545 696, 1482 696 C 1612.4545454545455 696, 1638.5454545454545 584, 1769 584 C 1899.4545454545455 584, 1925.5454545454545 696, 2056 696 L 2060 640 L 2060 1036 Z"></path><path fill="#ff7ad0" stroke="#ff7ad0" d="M -140 1036 L -260 768 C -129.54545454545456 768, -103.45454545454544 712, 27 712 C 157.45454545454544 712, 183.54545454545456 824, 314 824 C 444.45454545454544 824, 470.54545454545456 712, 601 712 C 731.4545454545455 712, 757.5454545454545 824, 888 824 C 1018.4545454545455 824, 1044.5454545454545 712, 1175 712 C 1305.4545454545455 712, 1331.5454545454545 824, 1462 824 C 1592.4545454545455 824, 1618.5454545454545 712, 1749 712 C 1879.4545454545455 712, 1905.5454545454545 824, 2036 824 L 2060 768 L 2060 1036 Z"></path><path fill="#e675f0" stroke="#e675f0" d="M -140 1036 L -280 896 C -149.54545454545456 896, -123.45454545454544 840, 7 840 C 137.45454545454544 840, 163.54545454545456 952, 294 952 C 424.45454545454544 952, 450.54545454545456 840, 581 840 C 711.4545454545455 840, 737.5454545454545 952, 868 952 C 998.4545454545455 952, 1024.5454545454545 840, 1155 840 C 1285.4545454545455 840, 1311.5454545454545 952, 1442 952 C 1572.4545454545455 952, 1598.5454545454545 840, 1729 840 C 1859.4545454545455 840, 1885.5454545454545 952, 2016 952 L 2060 896 L 2060 1036 Z"></path></svg>